<?xml version="1.0" encoding="UTF-8" standalone="no"?>
<!DOCTYPE svg PUBLIC "-//W3C//DTD SVG 1.1//EN" "http://www.w3.org/Graphics/SVG/1.1/DTD/svg11.dtd">
<svg width="100%" height="100%" viewBox="0 0 562 854" version="1.1" xmlns="http://www.w3.org/2000/svg" xmlns:xlink="http://www.w3.org/1999/xlink" xml:space="preserve" xmlns:serif="http://www.serif.com/" style="fill-rule:evenodd;clip-rule:evenodd;stroke-linejoin:round;stroke-miterlimit:2;">
    <g transform="matrix(1,0,0,1,-1476.796291,-295.559205)">
        <g transform="matrix(4.166667,0,0,4.166667,0,0)">
            <g transform="matrix(1,0,0,1,489.20611,78.793159)">
                <g id="Mono-Blue">
                    <path d="M-132.185,195.021C-133.777,193.583 -134.775,191.502 -134.775,189.187L-134.775,76.59C-133.853,80.509 -132.646,84.353 -131.138,88.107C-129.841,91.358 -128.378,94.57 -126.675,97.649C-124.823,100.963 -122.837,104.183 -120.548,107.223C-119.04,109.235 -117.484,111.225 -115.781,113.084C-113.679,115.405 -111.521,117.66 -109.193,119.758C-106.489,122.177 -103.644,124.424 -100.639,126.487C-96.783,129.16 -92.742,131.485 -88.506,133.477C-86.826,134.267 -85.13,135.021 -83.407,135.697C-80.714,136.74 -77.987,137.64 -75.212,138.39C-72.751,139.042 -70.273,139.643 -67.765,140.098C-65.1,140.578 -62.404,140.891 -59.707,141.168C-58.214,141.32 -56.722,141.355 -55.221,141.383C-52.345,141.414 -49.461,141.57 -46.578,141.387C-31.924,140.461 -23.993,137.8 -21.976,137.197C-13.612,134.694 -4.145,129.453 -0.001,127.03L-0.001,189.187C-0.001,193.529 -3.517,197.046 -7.854,197.046L-126.918,197.046C-128.946,197.046 -130.793,196.28 -132.185,195.021ZM-0.717,-3.285C-0.257,-2.286 -0.001,-1.174 -0.001,-0.002L-0,70.071C-2.24,72.553 -12.031,83.034 -23.805,87.587C-27.189,88.896 -30.729,89.752 -34.308,90.353C-34.394,90.365 -34.48,90.381 -34.574,90.392C-50.033,93.891 -66.788,90.838 -80.73,80.433C-101.198,65.154 -105.41,36.176 -90.135,15.708C-80.511,2.816 -64.107,-2.013 -49.571,2.48C-49.571,2.48 -62.716,13.926 -65.081,23.507C-67.445,33.089 -62.142,45.538 -45.921,45.628C-45.921,45.628 -38.662,45.569 -35.426,42.814C-35.411,42.756 -35.403,42.701 -35.403,42.642C-35.386,42.373 -35.403,42.092 -35.403,41.81L-35.403,-7.859L-7.854,-7.859C-7.277,-7.859 -6.714,-7.796 -6.172,-7.678C-3.743,-7.147 -1.734,-5.491 -0.717,-3.285ZM-126.918,-7.859L-84.815,-7.859C-85.086,-7.81 -85.356,-7.759 -85.626,-7.706C-88.741,-7.101 -91.781,-6.269 -94.743,-5.193C-98.884,-3.682 -102.851,-1.771 -106.59,0.57C-108.63,1.844 -110.591,3.243 -112.475,4.751C-115.238,6.994 -117.829,9.382 -120.185,12.047C-122.244,14.383 -124.12,16.849 -125.832,19.428C-126.363,20.232 -126.906,21.046 -127.367,21.897C-128.257,23.522 -129.156,25.152 -129.926,26.829C-130.942,29.044 -131.919,31.283 -132.748,33.561C-133.185,34.761 -133.591,35.973 -134.005,37.184C-134.287,38.167 -134.543,39.182 -134.775,40.212L-134.775,-0.001C-134.775,-3.23 -132.829,-6.007 -130.04,-7.215C-129.084,-7.629 -128.028,-7.859 -126.918,-7.859ZM-71.306,172.06L-71.306,166.598L-82.227,166.598L-82.227,157.861L-67.649,157.861L-67.649,152.394L-88.511,152.394L-88.511,188.445L-66.55,188.445L-66.55,182.982L-82.227,182.982L-82.227,172.06L-71.306,172.06ZM-45.195,172.06L-45.195,166.598L-55.519,166.598L-55.519,157.861L-41.209,157.861L-41.209,152.394L-61.802,152.394L-61.802,188.445L-55.519,188.445L-55.519,172.06L-45.195,172.06ZM-9.856,188.444L-25.259,152.394L-30.663,152.394L-44.649,188.444L-38.092,188.444L-34.379,177.956L-20.781,177.956L-16.682,188.444L-9.856,188.444ZM-32.633,173.042L-27.932,159.771L-22.742,173.042L-32.633,173.042ZM-95.282,160.15L-93.699,154.472C-95.118,153.742 -96.814,153.168 -98.779,152.75C-100.745,152.332 -102.711,152.121 -104.683,152.121C-107.665,152.121 -110.279,152.613 -112.518,153.597C-114.758,154.582 -116.633,155.919 -118.141,157.615C-119.654,159.302 -120.791,161.28 -121.556,163.539C-122.322,165.796 -122.705,168.219 -122.705,170.806C-122.705,173.281 -122.357,175.621 -121.666,177.824C-120.978,180.029 -119.908,181.966 -118.469,183.638C-117.031,185.316 -115.222,186.644 -113.034,187.629C-110.849,188.609 -108.267,189.101 -105.277,189.101C-102.695,189.101 -100.37,188.765 -98.314,188.093C-96.26,187.418 -94.501,186.644 -93.043,185.773L-94.68,180.369C-95.852,181.31 -97.33,182.111 -99.135,182.767C-100.936,183.42 -102.933,183.748 -105.113,183.748C-108.646,183.748 -111.349,182.623 -113.225,180.369C-115.101,178.105 -116.039,174.773 -116.039,170.369C-116.039,168.438 -115.832,166.68 -115.414,165.093C-114.992,163.511 -114.351,162.155 -113.471,161.026C-112.6,159.896 -111.459,159.025 -110.06,158.404C-108.658,157.787 -106.973,157.474 -105.004,157.474C-102.933,157.474 -101.081,157.724 -99.463,158.213C-97.842,158.705 -96.447,159.349 -95.282,160.15Z" style="fill:rgb(0,44,119);"/>
                </g>
            </g>
        </g>
    </g>
</svg>
