<?xml version="1.0" encoding="UTF-8" standalone="no"?>
<!DOCTYPE svg PUBLIC "-//W3C//DTD SVG 1.1//EN" "http://www.w3.org/Graphics/SVG/1.1/DTD/svg11.dtd">
<svg width="100%" height="100%" viewBox="0 0 562 859" version="1.1" xmlns="http://www.w3.org/2000/svg" xmlns:xlink="http://www.w3.org/1999/xlink" xml:space="preserve" xmlns:serif="http://www.serif.com/" style="fill-rule:evenodd;clip-rule:evenodd;stroke-linejoin:round;stroke-miterlimit:2;">
    <g transform="matrix(1,0,0,1,-762.907702,-275.583917)">
        <g transform="matrix(4.166667,0,0,4.166667,0,0)">
            <g id="Color" transform="matrix(1,0,0,1,-170.460151,-127.875822)">
                <g transform="matrix(1,0,0,1,488.333,203.0471)">
                    <path d="M0,189.187C0,193.529 -3.518,197.046 -7.854,197.046L-126.918,197.046C-131.264,197.046 -134.775,193.529 -134.775,189.187L-134.775,-0.001C-134.775,-4.338 -131.264,-7.859 -126.918,-7.859L-7.854,-7.859C-3.518,-7.859 0,-4.338 0,-0.001L0,189.187Z" style="fill:rgb(0,44,119);"/>
                </g>
                <g transform="matrix(1,0,0,1,393.0508,384.119)">
                    <path d="M0,-20.922C-1.165,-21.723 -2.56,-22.367 -4.181,-22.859C-5.799,-23.348 -7.651,-23.598 -9.722,-23.598C-11.691,-23.598 -13.376,-23.285 -14.778,-22.668C-16.177,-22.047 -17.318,-21.176 -18.189,-20.046C-19.069,-18.917 -19.71,-17.561 -20.132,-15.979C-20.55,-14.392 -20.757,-12.634 -20.757,-10.703C-20.757,-6.299 -19.819,-2.967 -17.943,-0.703C-16.067,1.551 -13.364,2.676 -9.831,2.676C-7.651,2.676 -5.654,2.348 -3.853,1.695C-2.048,1.039 -0.57,0.238 0.602,-0.703L2.239,4.701C0.781,5.572 -0.978,6.346 -3.032,7.021C-5.088,7.693 -7.413,8.029 -9.995,8.029C-12.985,8.029 -15.567,7.537 -17.752,6.557C-19.94,5.572 -21.749,4.244 -23.187,2.566C-24.626,0.894 -25.696,-1.043 -26.384,-3.248C-27.075,-5.451 -27.423,-7.791 -27.423,-10.266C-27.423,-12.853 -27.04,-15.276 -26.274,-17.533C-25.509,-19.792 -24.372,-21.77 -22.859,-23.457C-21.351,-25.153 -19.476,-26.49 -17.236,-27.475C-14.997,-28.459 -12.383,-28.951 -9.401,-28.951C-7.429,-28.951 -5.463,-28.74 -3.497,-28.322C-1.532,-27.904 0.164,-27.33 1.583,-26.6L0,-20.922Z" style="fill:white;fill-rule:nonzero;"/>
                </g>
                <g transform="matrix(1,0,0,1,417.0273,371.8261)">
                    <path d="M0,3.281L-10.921,3.281L-10.921,14.203L4.756,14.203L4.756,19.666L-17.205,19.666L-17.205,-16.385L3.657,-16.385L3.657,-10.918L-10.921,-10.918L-10.921,-2.181L0,-2.181L0,3.281Z" style="fill:white;fill-rule:nonzero;"/>
                </g>
                <g transform="matrix(1,0,0,1,443.1377,371.8261)">
                    <path d="M0,3.281L-10.324,3.281L-10.324,19.666L-16.607,19.666L-16.607,-16.385L3.986,-16.385L3.986,-10.918L-10.324,-10.918L-10.324,-2.181L0,-2.181L0,3.281Z" style="fill:white;fill-rule:nonzero;"/>
                </g>
                <g transform="matrix(1,0,0,1,455.7002,370.8436)">
                    <path d="M0,5.246L9.891,5.246L4.701,-8.025L0,5.246ZM22.777,20.648L15.951,20.648L11.852,10.16L-1.746,10.16L-5.459,20.648L-12.016,20.648L1.97,-15.402L7.374,-15.402L22.777,20.648Z" style="fill:white;fill-rule:nonzero;"/>
                </g>
                <g transform="matrix(1,0,0,1,452.9297,290.802)">
                    <path d="M0,-95.614L0,-45.945C0,-45.664 0.017,-45.382 0,-45.113C0,-45.054 -0.008,-45 -0.023,-44.941C-3.259,-42.186 -10.519,-42.127 -10.519,-42.127C-11.542,-42.131 -12.527,-42.19 -13.465,-42.292C-14.298,-42.381 -15.083,-42.514 -15.849,-42.67C-15.974,-42.698 -16.099,-42.717 -16.224,-42.745C-16.942,-42.905 -17.631,-43.096 -18.295,-43.323C-18.428,-43.366 -18.564,-43.413 -18.693,-43.46C-19.342,-43.687 -19.959,-43.941 -20.55,-44.218C-20.663,-44.273 -20.772,-44.328 -20.874,-44.382C-21.472,-44.679 -22.046,-45 -22.581,-45.343C-22.632,-45.378 -22.679,-45.418 -22.733,-45.453C-23.257,-45.796 -23.75,-46.164 -24.215,-46.555C-24.266,-46.598 -24.32,-46.641 -24.375,-46.68C-24.844,-47.079 -25.27,-47.501 -25.676,-47.934C-25.75,-48.02 -25.824,-48.094 -25.895,-48.172C-26.282,-48.606 -26.642,-49.051 -26.97,-49.513C-27.032,-49.599 -27.099,-49.693 -27.165,-49.783C-27.485,-50.255 -27.79,-50.736 -28.063,-51.232C-28.103,-51.306 -28.138,-51.384 -28.177,-51.462C-28.446,-51.97 -28.692,-52.487 -28.907,-53.014C-30.369,-56.625 -30.564,-60.637 -29.678,-64.249C-27.313,-73.83 -14.168,-85.275 -14.168,-85.275C-28.704,-89.768 -45.108,-84.939 -54.732,-72.047C-54.894,-71.829 -55.042,-71.602 -55.206,-71.383C-60.716,-63.724 -63.552,-54.928 -63.88,-46.128L-63.88,-46.097C-63.903,-45.382 -63.919,-44.656 -63.907,-43.933L-63.903,-43.89C-63.896,-43.163 -63.872,-42.456 -63.833,-41.752C-63.829,-41.71 -63.825,-41.663 -63.821,-41.624C-63.782,-40.932 -63.724,-40.252 -63.653,-39.568C-63.653,-39.509 -63.638,-39.451 -63.638,-39.388C-63.56,-38.724 -63.478,-38.064 -63.376,-37.403C-63.364,-37.317 -63.349,-37.231 -63.333,-37.149C-63.231,-36.512 -63.122,-35.879 -62.997,-35.247C-62.974,-35.145 -62.95,-35.044 -62.927,-34.938C-62.802,-34.324 -62.665,-33.718 -62.513,-33.113C-62.481,-32.988 -62.442,-32.863 -62.411,-32.738C-62.263,-32.156 -62.106,-31.573 -61.935,-31.002C-61.888,-30.846 -61.833,-30.698 -61.786,-30.549C-61.614,-30.002 -61.442,-29.456 -61.247,-28.912C-61.192,-28.744 -61.122,-28.572 -61.06,-28.4C-60.872,-27.884 -60.677,-27.369 -60.465,-26.853C-60.387,-26.658 -60.301,-26.478 -60.215,-26.287C-60.012,-25.797 -59.809,-25.309 -59.582,-24.829C-59.488,-24.618 -59.375,-24.415 -59.277,-24.204C-59.051,-23.751 -58.832,-23.29 -58.597,-22.839C-58.479,-22.617 -58.354,-22.398 -58.229,-22.175C-57.995,-21.75 -57.761,-21.32 -57.511,-20.898C-57.37,-20.656 -57.222,-20.425 -57.073,-20.186C-56.831,-19.788 -56.589,-19.389 -56.331,-18.991C-56.167,-18.745 -55.987,-18.499 -55.819,-18.252C-55.565,-17.881 -55.315,-17.506 -55.05,-17.146C-54.862,-16.884 -54.658,-16.63 -54.463,-16.377C-54.201,-16.033 -53.939,-15.685 -53.674,-15.349C-53.455,-15.076 -53.213,-14.81 -52.994,-14.544C-52.728,-14.231 -52.47,-13.915 -52.196,-13.614C-51.946,-13.325 -51.673,-13.051 -51.415,-12.774C-51.149,-12.497 -50.896,-12.208 -50.626,-11.934C-50.329,-11.637 -50.024,-11.355 -49.72,-11.066C-49.47,-10.816 -49.22,-10.566 -48.954,-10.328C-48.594,-10 -48.219,-9.683 -47.848,-9.363C-47.625,-9.175 -47.414,-8.976 -47.188,-8.789C-46.585,-8.288 -45.968,-7.799 -45.327,-7.323C-44.491,-6.698 -43.64,-6.104 -42.783,-5.533C-42.518,-5.353 -42.24,-5.189 -41.975,-5.017C-41.373,-4.634 -40.778,-4.248 -40.177,-3.892C-39.856,-3.705 -39.536,-3.529 -39.216,-3.345C-38.653,-3.025 -38.087,-2.709 -37.521,-2.407C-37.176,-2.231 -36.836,-2.063 -36.496,-1.891C-35.934,-1.614 -35.366,-1.336 -34.8,-1.079C-34.456,-0.919 -34.112,-0.77 -33.769,-0.622C-33.19,-0.368 -32.612,-0.126 -32.034,0.109C-31.698,0.239 -31.354,0.368 -31.018,0.493C-30.416,0.719 -29.814,0.93 -29.204,1.133C-28.884,1.243 -28.563,1.352 -28.243,1.45C-27.603,1.649 -26.954,1.836 -26.306,2.016C-26.017,2.094 -25.734,2.176 -25.449,2.25C-24.734,2.438 -24.016,2.602 -23.296,2.758C-23.077,2.805 -22.858,2.86 -22.636,2.903C-21.788,3.075 -20.94,3.228 -20.089,3.361C-19.994,3.373 -19.904,3.392 -19.807,3.408C-14.899,4.142 -9.948,4.216 -5.063,3.646C-5.017,3.642 -4.97,3.634 -4.923,3.626C-2.993,3.4 -1.07,3.071 0.829,2.637C0.923,2.625 1.009,2.61 1.095,2.598C4.674,1.997 8.214,1.141 11.598,-0.169C23.392,-4.728 33.188,-15.232 35.403,-17.686L35.403,-87.756C35.403,-92.093 31.886,-95.614 27.549,-95.614L0,-95.614Z" style="fill:rgb(205,32,44);fill-rule:nonzero;"/>
                </g>
                <g transform="matrix(1,0,0,1,488.8135,266.0047)">
                    <path d="M-135.256,13.633L-135.256,-22.745C-135.024,-23.776 -134.768,-24.791 -134.486,-25.774C-134.072,-26.985 -133.666,-28.197 -133.229,-29.397C-132.4,-31.675 -131.423,-33.914 -130.407,-36.129C-129.637,-37.806 -128.738,-39.436 -127.848,-41.061C-127.387,-41.912 -126.844,-42.726 -126.313,-43.53C-124.601,-46.109 -122.725,-48.575 -120.666,-50.911C-118.31,-53.576 -115.719,-55.964 -112.956,-58.207C-111.072,-59.715 -109.111,-61.114 -107.071,-62.388C-103.332,-64.729 -99.365,-66.64 -95.224,-68.151C-92.262,-69.227 -89.222,-70.059 -86.107,-70.664C-83.45,-71.18 -80.773,-71.54 -78.046,-71.692C-76.861,-71.755 -75.674,-71.743 -74.494,-71.86C-72.888,-72.032 -71.285,-71.946 -69.691,-71.978C-68.09,-71.997 -66.468,-71.985 -64.873,-71.985C-55.202,-71.985 -45.543,-71.982 -35.884,-71.978L-35.884,-21.148C-35.884,-20.866 -35.867,-20.585 -35.884,-20.316C-35.884,-20.257 -35.892,-20.202 -35.907,-20.144C-39.143,-17.389 -46.402,-17.33 -46.402,-17.33C-62.623,-17.42 -67.926,-29.869 -65.562,-39.451C-63.197,-49.032 -50.052,-60.478 -50.052,-60.478C-64.588,-64.971 -80.992,-60.142 -90.616,-47.25C-105.891,-26.782 -101.679,2.196 -81.211,17.475C-67.269,27.88 -50.514,30.933 -35.055,27.434C-34.961,27.423 -34.875,27.407 -34.789,27.395C-31.21,26.794 -27.67,25.938 -24.286,24.629C-12.511,20.076 -2.72,9.595 -0.481,7.114L-0.481,64.073C-4.625,66.495 -14.092,71.736 -22.457,74.239C-24.474,74.842 -32.405,77.503 -47.059,78.429C-49.942,78.612 -52.826,78.456 -55.702,78.425C-57.203,78.397 -58.695,78.362 -60.188,78.21C-62.885,77.933 -65.581,77.62 -68.246,77.14C-70.754,76.685 -73.232,76.084 -75.693,75.432C-78.468,74.682 -81.195,73.782 -83.888,72.739C-85.611,72.063 -87.307,71.309 -88.987,70.519C-93.223,68.527 -97.264,66.202 -101.12,63.529C-104.125,61.466 -106.97,59.219 -109.674,56.8C-112.002,54.702 -114.16,52.447 -116.262,50.126C-117.965,48.267 -119.521,46.277 -121.029,44.265C-123.318,41.225 -125.304,38.005 -127.156,34.691C-128.859,31.612 -130.321,28.4 -131.619,25.149C-133.126,21.395 -134.333,17.551 -135.256,13.633Z" style="fill:white;"/>
                </g>
            </g>
        </g>
    </g>
</svg>
