<?xml version="1.0" encoding="UTF-8" standalone="no"?>
<!DOCTYPE svg PUBLIC "-//W3C//DTD SVG 1.1//EN" "http://www.w3.org/Graphics/SVG/1.1/DTD/svg11.dtd">
<svg width="100%" height="100%" viewBox="0 0 1352 1352" version="1.1" xmlns="http://www.w3.org/2000/svg" xmlns:xlink="http://www.w3.org/1999/xlink" xml:space="preserve" xmlns:serif="http://www.serif.com/" style="fill-rule:evenodd;clip-rule:evenodd;stroke-linejoin:round;stroke-miterlimit:2;">
    <g transform="matrix(1,0,0,1,-473.209256,-242.264118)">
        <path d="M1610.23,1155.75C1545.91,1103.23 1481.6,1050.71 1417.28,998.068C1363.24,953.795 1309.2,909.65 1255.67,864.744C1250.6,860.431 1247.68,852.058 1246.41,845.081C1235.75,782.288 1225.6,719.369 1215.33,656.448C1202.14,575.135 1188.94,493.821 1175.75,412.38C1169.92,377.115 1164.08,341.722 1157.87,303.539C1220.4,301.763 1279.52,314.068 1336.98,332.969C1474.37,378.129 1584.6,460.078 1664.52,581.224C1811.93,804.234 1777.68,1064.67 1684.44,1215.62C1659.58,1195.58 1634.84,1175.79 1610.23,1155.75ZM1671.12,1243.66C1640.67,1290.09 1606.04,1332.84 1564.94,1370.13C1492.38,1436.1 1409.04,1482.78 1314.78,1508.91C1244.51,1528.45 1173.09,1535.68 1099.89,1529.34C960.606,1517.54 839.714,1464.26 735.44,1372.42C690.533,1332.71 652.223,1287.04 621.017,1231.99C651.969,1220.06 681.145,1208.77 710.322,1197.74C853.541,1144.08 996.633,1090.42 1139.85,1037.01C1144.93,1035.11 1151.78,1035.11 1156.85,1037.01C1245.14,1069.74 1333.31,1102.98 1421.47,1135.96C1498.72,1164.88 1576.1,1193.55 1653.36,1222.47C1657.67,1224 1661.73,1226.28 1666.05,1227.55C1675.94,1230.47 1675.94,1236.43 1671.12,1243.66ZM574.207,1132.53C550.739,1070.63 537.419,1006.44 534.755,940.095C532.472,881.615 538.815,823.896 552.895,767.066C570.275,696.788 599.324,631.205 640.299,571.963C693.958,494.329 761.952,431.281 844.407,384.345C928.512,336.268 1018.96,309.375 1115.62,303.792C1142.14,302.271 1142.26,302.65 1137.82,329.164C1127.93,388.404 1117.65,447.772 1107.76,507.141C1090.63,609.893 1073.51,712.518 1056.38,815.271C1054.61,826.307 1053.46,837.47 1050.29,848C1048.14,855.23 1044.459,863.475 1038.75,868.042C935.236,953.416 831.215,1038.281 727.321,1123.27C693.704,1150.8 660.088,1178.58 626.344,1206.11C622.159,1209.53 617.718,1212.58 610.614,1218.03C597.802,1188.1 584.99,1160.7 574.207,1132.53ZM1135.79,242.395C775.271,249.372 470.313,543.674 473.23,923.985C476.022,1296.94 784.405,1597.46 1157.23,1593.27C1523.33,1589.21 1826.52,1287.04 1824.87,917.008C1826.52,549.383 1520.42,234.911 1135.79,242.395Z" style="fill-rule:nonzero;"/>
    </g>
</svg>
