<?xml version="1.0" encoding="UTF-8" standalone="no"?>
<!DOCTYPE svg PUBLIC "-//W3C//DTD SVG 1.1//EN" "http://www.w3.org/Graphics/SVG/1.1/DTD/svg11.dtd">
<svg width="100%" height="100%" viewBox="0 0 2427 1335" version="1.1" xmlns="http://www.w3.org/2000/svg" xmlns:xlink="http://www.w3.org/1999/xlink" xml:space="preserve" xmlns:serif="http://www.serif.com/" style="fill-rule:evenodd;clip-rule:evenodd;stroke-linejoin:round;stroke-miterlimit:2;">
    <g transform="matrix(1,0,0,1,-36.782246,-582.718566)">
        <g transform="matrix(12.969765,0,0,12.969765,0,0)">
            <path d="M180.201,147.803C180.49,144.971 180.637,141.379 180.637,138.471C180.637,91.937 142.912,54.213 96.378,54.213C49.844,54.213 12.12,91.937 12.12,138.471C12.12,141.641 12.295,144.729 12.636,147.809L3.319,147.797C2.997,144.699 2.836,141.586 2.836,138.471C2.836,86.81 44.718,44.929 96.379,44.929C148.042,44.929 189.923,86.81 189.923,138.471C189.923,141.619 189.767,144.729 189.464,147.797L180.201,147.803Z"/>
            <path d="M42.214,145.693L52.063,135.516L52.063,147.828L65.685,147.828L65.685,120.252L52.063,120.252L42.214,132.07L32.367,120.252L18.744,120.252L18.744,147.828L32.367,147.828L32.367,135.516L42.214,145.693ZM126.578,120.252L126.578,147.828L140.203,147.828L140.203,133.383L158.42,147.828L172.863,147.828L172.863,120.252L159.24,120.252L159.24,135.025L140.203,120.252L126.578,120.252ZM70.774,147.828L88.171,120.252L104.092,120.252L121.654,147.828L107.211,147.828L96.214,130.43L90.798,139.291L101.629,139.291L105.57,145.365L86.859,145.365L85.217,147.828L70.774,147.828Z"/>
        </g>
    </g>
</svg>
