<svg id="Layer_1" data-name="Layer 1" xmlns="http://www.w3.org/2000/svg" viewBox="0 0 111.28 98.52"><title>Opel logo - Brandlogos.net</title><path d="M269.71,298.8h8.43a0,0,0,0,0,0,0v-2.69a0,0,0,0,0,0,0h-8.43a0,0,0,0,1,0,0h0v-3a0,0,0,0,1,0,0H279v-2.89a0,0,0,0,0,0,0H266.35a0,0,0,0,0,0,0h0v14.87a0,0,0,0,0,0,0h12.71a0,0,0,0,0,0,0h0v-2.89a0,0,0,0,0,0,0h-9.35a0,0,0,0,1,0,0h0v-3.18a0,0,0,0,1,0,0Z" transform="translate(-200.36 -206.74)"/><path d="M246.79,290.53a8.66,8.66,0,0,0-3.27-.49h-8.45a0,0,0,0,0,0,0h0v14.87a0,0,0,0,0,0,0h3.36a0,0,0,0,0,0,0h0v-4.55a0,0,0,0,1,0,0h5a6.6,6.6,0,0,0,4.39-1.22,4.75,4.75,0,0,0,1.47-3.92,6.06,6.06,0,0,0-.63-3.08A3.37,3.37,0,0,0,246.79,290.53Zm-1.36,6.41a3.08,3.08,0,0,1-2.1.54h-4.85a0,0,0,0,1,0,0v-4.55a0,0,0,0,1,0,0h4.85a3.79,3.79,0,0,1,1.65.24,1.77,1.77,0,0,1,.83.73,3.23,3.23,0,0,1,.24,1.27,2.32,2.32,0,0,1-.63,1.81Z" transform="translate(-200.36 -206.74)"/><path d="M213.85,290.63a11.72,11.72,0,0,0-4.87-.88,11.57,11.57,0,0,0-4.87.88,5.63,5.63,0,0,0-2.83,2.59,10.36,10.36,0,0,0,0,8.56,5.88,5.88,0,0,0,2.82,2.6,13.94,13.94,0,0,0,9.74,0,6,6,0,0,0,2.87-2.6,10.36,10.36,0,0,0,0-8.56A5.71,5.71,0,0,0,213.85,290.63Zm-.24,9.55A2.88,2.88,0,0,1,212,301.7a7.28,7.28,0,0,1-3,.54,8.36,8.36,0,0,1-3-.49h0a3.34,3.34,0,0,1-1.61-1.57,6.78,6.78,0,0,1-.49-2.64,7,7,0,0,1,.49-2.69,2.91,2.91,0,0,1,1.61-1.52,7.14,7.14,0,0,1,3-.54,8.38,8.38,0,0,1,3.07.49h0a3.06,3.06,0,0,1,1.56,1.57,6.7,6.7,0,0,1,.49,2.64,6.82,6.82,0,0,1-.49,2.69Z" transform="translate(-200.36 -206.74)"/><path d="M302.63,301.91V290.07a0,0,0,0,0,0,0h-3.32a0,0,0,0,0,0,0h0v14.87a0,0,0,0,0,0,0h12.33a0,0,0,0,0,0,0v-3a0,0,0,0,0,0,0h-9a0,0,0,0,1,0,0h0Z" transform="translate(-200.36 -206.74)"/><path d="M311.12,247.57,250.25,241h0l-16.66,8.72a0,0,0,0,0,0,0l0,0h73.54l4-2.09a0,0,0,0,0,0,0,0,0,0,0,0,0,0h0Z" transform="translate(-200.36 -206.74)"/><path d="M256,209.16A31.81,31.81,0,0,1,287.81,241c0,.54,0,1.07,0,1.61l2.45.26c0-.62.05-1.24.05-1.87a34.27,34.27,0,0,0-66.65-11.2h2.61A31.83,31.83,0,0,1,256,209.16Z" transform="translate(-200.36 -206.74)"/><path d="M256,272.78A31.81,31.81,0,0,1,224.18,241h0c0-.54,0-1.08,0-1.61l-2.45-.26q-.05.93-.05,1.88a34.27,34.27,0,0,0,66.66,11.19h-2.6A31.83,31.83,0,0,1,256,272.78Z" transform="translate(-200.36 -206.74)"/><path d="M261.74,241h0l16.66-8.69a0,0,0,0,0,0,0H204.87l-4,2.09a0,0,0,0,0,0,0l0,0Z" transform="translate(-200.36 -206.74)"/></svg>