{
  "accessors": [
    {
      "bufferView": 2,
      "componentType": 5126,
      "count": 1647,
      "max": [0.6573053002357483, 0.06759653985500336, 0.6256774663925171],
      "min": [-0.8138393759727478, -0.27180594205856323, -0.18431800603866577],
      "type": "VEC3"
    },
    {
      "bufferView": 2,
      "byteOffset": 19764,
      "componentType": 5126,
      "count": 1647,
      "max": [0.9980522394180298, 0.9999701976776123, 0.46733948588371277],
      "min": [-0.9959654808044434, -0.9994654059410095, -0.9998085498809814],
      "type": "VEC3"
    },
    {
      "bufferView": 1,
      "componentType": 5126,
      "count": 1647,
      "max": [0.0, 0.0],
      "min": [0.0, 0.0],
      "type": "VEC2"
    },
    {
      "bufferView": 1,
      "byteOffset": 13176,
      "componentType": 5126,
      "count": 1647,
      "max": [1.000000238418579, 1.0],
      "min": [0.0, 0.0],
      "type": "VEC2"
    },
    {
      "bufferView": 1,
      "byteOffset": 26352,
      "componentType": 5126,
      "count": 1647,
      "max": [1.235572338104248, 0.904997706413269],
      "min": [-0.23557233810424805, 0.09500226378440857],
      "type": "VEC2"
    },
    {
      "bufferView": 0,
      "componentType": 5125,
      "count": 4746,
      "type": "SCALAR"
    },
    {
      "bufferView": 2,
      "byteOffset": 39528,
      "componentType": 5126,
      "count": 654,
      "max": [0.49349087476730347, 0.102097287774086, 0.5477753281593323],
      "min": [-0.6337637901306152, -0.204228013753891, -0.09284491837024689],
      "type": "VEC3"
    },
    {
      "bufferView": 2,
      "byteOffset": 47376,
      "componentType": 5126,
      "count": 654,
      "max": [1.0, 0.9576706886291504, 0.9573436379432678],
      "min": [-1.0, -0.9573440551757813, -0.9635992050170898],
      "type": "VEC3"
    },
    {
      "bufferView": 1,
      "byteOffset": 39528,
      "componentType": 5126,
      "count": 654,
      "max": [0.0, 0.0],
      "min": [0.0, 0.0],
      "type": "VEC2"
    },
    {
      "bufferView": 1,
      "byteOffset": 44760,
      "componentType": 5126,
      "count": 654,
      "max": [1.0, 1.0],
      "min": [0.0, 0.0],
      "type": "VEC2"
    },
    {
      "bufferView": 1,
      "byteOffset": 49992,
      "componentType": 5126,
      "count": 654,
      "max": [0.0, 0.0],
      "min": [0.0, 0.0],
      "type": "VEC2"
    },
    {
      "bufferView": 0,
      "byteOffset": 18984,
      "componentType": 5125,
      "count": 2370,
      "type": "SCALAR"
    },
    {
      "bufferView": 2,
      "byteOffset": 55224,
      "componentType": 5126,
      "count": 392,
      "max": [0.5176208019256592, 0.034171998500823975, 0.03214166313409805],
      "min": [-0.6850375533103943, -0.03145257756114006, -0.03420403227210045],
      "type": "VEC3"
    },
    {
      "bufferView": 2,
      "byteOffset": 59928,
      "componentType": 5126,
      "count": 392,
      "max": [1.0, 0.9908368587493896, 0.13506515324115753],
      "min": [-1.0, -0.9908368587493896, -0.9908369183540344],
      "type": "VEC3"
    },
    {
      "bufferView": 1,
      "byteOffset": 55224,
      "componentType": 5126,
      "count": 392,
      "max": [0.0, 0.0],
      "min": [0.0, 0.0],
      "type": "VEC2"
    },
    {
      "bufferView": 1,
      "byteOffset": 58360,
      "componentType": 5126,
      "count": 392,
      "max": [1.0, 1.0],
      "min": [7.450580596923828e-8, 0.5],
      "type": "VEC2"
    },
    {
      "bufferView": 1,
      "byteOffset": 61496,
      "componentType": 5126,
      "count": 392,
      "max": [0.0, 0.0],
      "min": [0.0, 0.0],
      "type": "VEC2"
    },
    {
      "bufferView": 0,
      "byteOffset": 28464,
      "componentType": 5125,
      "count": 1410,
      "type": "SCALAR"
    }
  ],
  "asset": {
    "extras": {
      "author": "Dubina (https://sketchfab.com/anton.dubina)",
      "license": "CC-BY-4.0 (http://creativecommons.org/licenses/by/4.0/)",
      "source": "https://sketchfab.com/3d-models/dashboard-for-electric-car-dubina-evo-edda6f2e6167476f814fe2cc98b1998f",
      "title": "Dashboard for electric car Dubina Evo"
    },
    "generator": "Sketchfab-16.87.0",
    "version": "2.0"
  },
  "bufferViews": [
    {
      "buffer": 0,
      "byteLength": 34104,
      "name": "floatBufferViews",
      "target": 34963
    },
    {
      "buffer": 0,
      "byteLength": 64632,
      "byteOffset": 34104,
      "byteStride": 8,
      "name": "floatBufferViews",
      "target": 34962
    },
    {
      "buffer": 0,
      "byteLength": 64632,
      "byteOffset": 98736,
      "byteStride": 12,
      "name": "floatBufferViews",
      "target": 34962
    }
  ],
  "buffers": [
    {
      "byteLength": 163368,
      "uri": "scene.bin"
    }
  ],
  "materials": [
    {
      "doubleSided": true,
      "name": "4._Black_glossy",
      "pbrMetallicRoughness": {
        "baseColorFactor": [0.00759693, 0.00759693, 0.00759693, 1.0],
        "metallicFactor": 0.0,
        "roughnessFactor": 0.997720921
      }
    },
    {
      "doubleSided": true,
      "name": "3._Dark_Gray",
      "pbrMetallicRoughness": {
        "baseColorFactor": [0.0140734, 0.0168108, 0.0168108, 1.0],
        "metallicFactor": 0.0,
        "roughnessFactor": 0.9965573455399266
      }
    },
    {
      "doubleSided": true,
      "name": "7._Yellow",
      "pbrMetallicRoughness": {
        "baseColorFactor": [0.722861, 0.383968, 0.0, 1.0],
        "metallicFactor": 0.0,
        "roughnessFactor": 0.904230513895448
      }
    }
  ],
  "meshes": [
    {
      "name": "19_Dashboard_4. Black glossy_0",
      "primitives": [
        {
          "attributes": {
            "NORMAL": 1,
            "POSITION": 0,
            "TEXCOORD_0": 2,
            "TEXCOORD_1": 3,
            "TEXCOORD_2": 4
          },
          "indices": 5,
          "material": 0,
          "mode": 4
        }
      ]
    },
    {
      "name": "19_Dashboard_3. Dark Gray_0",
      "primitives": [
        {
          "attributes": {
            "NORMAL": 7,
            "POSITION": 6,
            "TEXCOORD_0": 8,
            "TEXCOORD_1": 9,
            "TEXCOORD_2": 10
          },
          "indices": 11,
          "material": 1,
          "mode": 4
        }
      ]
    },
    {
      "name": "19_Dashboard_7. Yellow_0",
      "primitives": [
        {
          "attributes": {
            "NORMAL": 13,
            "POSITION": 12,
            "TEXCOORD_0": 14,
            "TEXCOORD_1": 15,
            "TEXCOORD_2": 16
          },
          "indices": 17,
          "material": 2,
          "mode": 4
        }
      ]
    }
  ],
  "nodes": [
    {
      "children": [1],
      "matrix": [
        -0.8358635306358337, -1.2188855727059605e-16, 0.5489372611045837, 0.0, 0.5489372611045837,
        -1.855989874312755e-16, 0.8358635306358337, 0.0, 0.0, 1.0, 2.220446049250313e-16, 0.0, 0.0,
        0.0, 0.0, 1.0
      ],
      "name": "Sketchfab_model"
    },
    {
      "children": [2],
      "matrix": [
        0.009999999776482582, 0.0, 0.0, 0.0, 0.0, 0.0, 0.009999999776482582, 0.0, 0.0,
        -0.009999999776482582, 0.0, 0.0, 0.0, 0.0, 0.0, 1.0
      ],
      "name": "910762ceab1c4a46a93f2ec825af5aae.fbx"
    },
    {
      "children": [3],
      "name": "RootNode"
    },
    {
      "children": [4, 5, 6],
      "matrix": [
        100.0, 0.0, 0.0, 0.0, 0.0, 99.99999999999866, 1.6292067073209114e-5, 0.0, 0.0,
        -1.6292067073209114e-5, 99.99999999999866, 0.0, 1495.96826171875, 86.66410827636719,
        32.50263977050781, 1.0
      ],
      "name": "19_Dashboard"
    },
    {
      "mesh": 0,
      "name": "19_Dashboard_4. Black glossy_0"
    },
    {
      "mesh": 1,
      "name": "19_Dashboard_3. Dark Gray_0"
    },
    {
      "mesh": 2,
      "name": "19_Dashboard_7. Yellow_0"
    }
  ],
  "scene": 0,
  "scenes": [
    {
      "name": "Sketchfab_Scene",
      "nodes": [0]
    }
  ]
}
