<?xml version="1.0" encoding="UTF-8" standalone="no"?>
<!DOCTYPE svg PUBLIC "-//W3C//DTD SVG 1.1//EN" "http://www.w3.org/Graphics/SVG/1.1/DTD/svg11.dtd">
<svg width="100%" height="100%" viewBox="0 0 1986 745" version="1.1" xmlns="http://www.w3.org/2000/svg" xmlns:xlink="http://www.w3.org/1999/xlink" xml:space="preserve" xmlns:serif="http://www.serif.com/" style="fill-rule:evenodd;clip-rule:evenodd;stroke-linejoin:round;stroke-miterlimit:2;">
    <g transform="matrix(1,0,0,1,-132.642958,-580.625)">
        <g>
            <path d="M2059.149,1018.42C2046.25,1042.18 2028.52,1062.01 2008.41,1079.81C1974.47,1109.83 1935.95,1132.79 1895.46,1152.68C1837.88,1180.97 1777.6,1202.07 1715.98,1219.54C1665.06,1233.99 1613.52,1245.94 1561.39,1255.08C1527.25,1261.07 1493.03,1266.77 1458.67,1271.38C1424.31,1275.99 1389.77,1279.55 1355.25,1282.77C1266.25,1291.07 1177.03,1294.06 1087.68,1292.6C1050.87,1292.01 1014.06,1290.79 977.303,1288.74C941.741,1286.76 906.242,1283.66 870.766,1280.46C817.099,1275.62 763.74,1268.25 710.649,1259.05C627.871,1244.68 546.246,1225.59 466.665,1198.38C413.496,1180.2 361.802,1158.64 313.133,1130.31C280.974,1111.59 250.757,1090.24 224.844,1063.29C205.049,1042.7 188.784,1019.78 180.012,992.267C167.852,954.099 173.869,918.087 193.711,883.938C208.784,858.001 229.368,836.887 252.4,818.017C287.085,789.6 325.735,767.587 366.185,748.598C440.68,713.62 518.87,689.554 598.728,670.462C646.387,659.069 694.44,649.531 742.904,642.361C780.195,636.85 817.604,632.073 855.07,627.896C885.492,624.501 916.056,622.243 946.581,619.906C1003.91,615.508 1061.36,614.087 1140.29,613.487C1165.53,614.229 1212.23,614.853 1258.84,617.19C1300.84,619.298 1342.8,622.638 1384.67,626.586C1449.83,632.736 1514.55,642.204 1578.8,654.726C1659.71,670.494 1739.35,690.936 1816.6,720.039C1862.03,737.165 1906.14,757.102 1947.63,782.478C1978.71,801.499 2007.75,823.102 2032.14,850.444C2050.83,871.399 2065.6,894.628 2072.649,922.129C2081.33,956.034 2075.649,988.027 2059.149,1018.42ZM2116.08,931.359C2112.31,906.756 2102.56,884.562 2088.899,863.978C2067.419,831.645 2039.16,806.039 2008.01,783.418C1966.87,753.541 1922.05,730.232 1875.49,710.114C1815.95,684.382 1754.4,664.532 1691.69,648.133C1625.69,630.865 1558.88,617.451 1491.37,607.802C1451.58,602.117 1411.64,597.332 1371.64,593.376C1334.11,589.666 1296.45,586.776 1258.78,584.983C1211.77,582.749 1164.68,582.015 1117.62,580.625C1049.19,581.857 980.856,584.123 912.7,590.116C877.62,593.195 842.531,596.432 807.593,600.806C773.207,605.109 738.932,610.518 704.736,616.179C644.073,626.23 584.153,639.701 524.982,656.455C460.064,674.836 396.606,697.166 335.92,726.869C291.862,748.44 249.944,773.414 212.827,805.802C189.392,826.244 168.65,849.015 153.585,876.453C131.256,917.107 125.887,959.468 141.829,1003.64C153.174,1035.09 172.819,1061.04 196.317,1084.3C228.065,1115.74 264.804,1140.33 303.753,1161.78C358.826,1192.1 416.985,1215.14 476.677,1234.51C529.167,1251.53 582.479,1265.55 636.517,1276.64C670.721,1283.66 705.067,1290.11 739.532,1295.66C771.549,1300.82 803.764,1304.86 835.986,1308.65C864.821,1312.03 893.75,1314.79 922.696,1317.08C950.734,1319.29 978.834,1321.09 1006.94,1322.09C1047.42,1323.53 1087.93,1324.73 1128.43,1324.86C1190.24,1325.07 1252.03,1322.98 1313.67,1318.07C1346.42,1315.46 1379.22,1313.04 1411.8,1309C1455.21,1303.63 1498.53,1297.47 1541.69,1290.4C1610.81,1279.09 1678.96,1263.24 1746.05,1243.03C1807.77,1224.46 1868.05,1202.14 1925.55,1172.82C1969.39,1150.46 2010.96,1124.65 2047.14,1090.93C2070.79,1068.88 2091.05,1044.22 2104.35,1014.41C2116.2,987.853 2120.51,960.226 2116.08,931.359Z" style="fill-rule:nonzero;"/>
            <path d="M1707.28,848.612C1682.75,886.725 1657.97,924.679 1633.69,962.958C1605.84,1006.89 1578.37,1051.07 1550.94,1095.27C1548.09,1099.86 1546,1105.17 1544.7,1110.43C1542.67,1118.71 1548.14,1125.17 1556.76,1125.54C1564.69,1125.89 1571.75,1123 1578.24,1118.83C1595.05,1108.06 1609.76,1094.74 1623.9,1080.76C1634.84,1069.95 1645.65,1059.01 1656.56,1048.151C1660.56,1044.18 1662.07,1044.161 1666.15,1047.84C1669.37,1050.74 1672.53,1053.72 1675.73,1056.64C1678,1058.69 1678.13,1060.82 1676.17,1063.17C1652.14,1092.03 1626.81,1119.6 1596.35,1141.91C1581.08,1153.09 1564.58,1162.1 1545.7,1165.49C1539.33,1166.64 1532.51,1167.05 1526.14,1166.15C1507.59,1163.52 1495.42,1150.22 1493.27,1131.63C1493.06,1129.83 1492.05,1128.14 1491.42,1126.39C1489.8,1127.36 1487.94,1128.09 1486.59,1129.35C1472.01,1142.96 1455.97,1154.28 1436.67,1160.07C1413.74,1166.94 1392.62,1163.85 1374.82,1146.83C1363.8,1136.31 1358.25,1122.76 1356.92,1107.91C1356.02,1097.94 1357.16,1087.78 1357.3,1077.71C1357.31,1076.22 1356.86,1074.73 1356.63,1073.24C1355.1,1073.65 1353.31,1073.66 1352.07,1074.5C1339.41,1083.09 1325.62,1089.09 1310.66,1092.15C1282.01,1097.98 1258.19,1081.04 1254.07,1052.15C1253.6,1048.85 1253.15,1045.55 1251.7,1042C1250.73,1043.291 1249.68,1044.521 1248.8,1045.87C1225.86,1081.57 1202.87,1117.24 1180.06,1153.02C1177.36,1157.27 1174.32,1159.12 1169.19,1159C1155.12,1158.68 1141.04,1158.9 1126.97,1158.9C1120.73,1158.9 1119.46,1156.95 1122.8,1151.55C1135.83,1130.58 1149.24,1109.83 1162.12,1088.76C1177.8,1063.09 1193.19,1037.25 1208.44,1011.33C1211.27,1006.53 1213.43,1001.15 1214.84,995.764C1217.64,984.987 1210.9,978.709 1200.25,981.829C1189.52,984.963 1180.89,991.707 1172.48,998.702C1152.22,1015.54 1135.43,1035.59 1119.39,1056.29C1106.19,1073.32 1093.76,1090.96 1080.22,1107.72C1063.51,1128.41 1043.62,1145.45 1018.53,1155.48C997.295,1163.97 975.676,1165.67 953.908,1157.59C932.874,1149.78 918.97,1134.87 911.516,1113.84C911.161,1112.84 911.066,1111.73 910.545,1110.84C909.581,1109.23 908.397,1107.74 907.308,1106.2C905.902,1107.28 904.418,1108.29 903.083,1109.45C893.222,1118.09 883.541,1126.96 873.459,1135.34C868.674,1139.32 866.14,1138.68 862.191,1133.74C859.491,1130.35 856.965,1126.82 854.596,1123.19C851.454,1118.37 851.817,1116.44 856.025,1112.65C860.913,1108.25 865.729,1103.78 870.703,1099.48C884.694,1087.37 894.761,1072.72 901.504,1055.39C912.495,1027.171 927.86,1001.56 950.45,980.944C973.608,959.815 1001.01,947.348 1032,942.777C1034.589,942.398 1037.26,942.453 1039.88,942.626C1045.189,942.982 1049.07,945.342 1050.77,950.736C1051.87,954.241 1053.3,957.636 1054.5,961.102C1056.11,965.729 1055.5,967.134 1050.91,968.943C1036.43,974.635 1022.54,981.473 1009.87,990.561C986.967,1006.99 970.015,1027.8 962.624,1055.48C959.948,1065.52 959.309,1075.75 961.709,1085.92C966.754,1107.33 985.751,1117.95 1007.97,1111.7C1027.199,1106.3 1041.449,1093.94 1052.85,1078.09C1069.36,1055.14 1076.18,1029.171 1074.94,1001.2C1074.48,990.932 1072.32,980.684 1070.33,970.545C1068.82,962.863 1069.37,959.855 1076.03,955.497C1080.63,952.488 1085.49,949.82 1090.39,947.309C1097.02,943.906 1102.95,945.643 1107.02,952.006C1113.2,961.687 1116.65,972.393 1118.46,983.628C1119.31,988.935 1119.55,994.328 1120.17,999.672C1120.33,1001.15 1120.85,1002.59 1121.5,1005.18C1123.66,1003.12 1125.02,1001.95 1126.25,1000.66C1138.79,987.561 1150.91,974.02 1163.96,961.45C1177.77,948.154 1193.76,937.928 1213.01,934.518C1219.47,933.373 1226.48,933.326 1232.92,934.501C1247.05,937.084 1255.81,947.514 1258.18,963.139C1258.85,967.538 1258.85,972.03 1259.2,976.483C1259.33,977.992 1259.58,979.5 1259.78,981.007C1260.13,981.197 1260.5,981.386 1260.86,981.576C1262.18,980.147 1263.69,978.86 1264.8,977.281C1273.49,964.908 1284.5,955.102 1297.63,947.688C1310.01,940.692 1323.38,937.392 1337.47,939.792C1360.28,943.661 1373.93,965.319 1368.02,987.766C1363.64,1004.43 1353.72,1016.06 1336.25,1019.64C1317.72,1023.44 1301.65,1008.56 1303.58,989.803C1303.69,988.753 1303.96,987.679 1303.81,986.668C1303.67,985.737 1303.28,984.387 1302.61,984.103C1301.91,983.81 1300.46,984.26 1299.87,984.892C1287.5,998.172 1279.79,1013.36 1283,1032.01C1285.84,1048.51 1300.21,1057.12 1317.4,1053.47C1328.66,1051.08 1338.89,1046.12 1347.85,1039.171C1362.69,1027.671 1377.26,1015.77 1391.47,1003.5C1406.89,990.182 1421.7,976.144 1438.81,964.924C1454.7,954.501 1471.54,946.471 1490.74,944.553C1507.21,942.903 1522.77,945.556 1536.54,955.251C1545.54,961.592 1551.8,969.961 1554.03,981.023C1554.27,982.271 1555.26,983.36 1555.9,984.529C1557.11,983.661 1558.69,983.044 1559.46,981.884C1569.15,967.34 1578.77,952.756 1588.3,938.11C1608.23,907.506 1628.04,876.824 1648.1,846.299C1649.32,844.444 1652.25,842.675 1654.42,842.627C1671.25,842.32 1688.09,842.398 1704.92,842.462C1709.37,842.478 1710.05,844.325 1707.28,848.612ZM775.576,1105.77C754.463,1125.36 731.352,1141.91 703.48,1150.48C674.369,1159.44 644.863,1161.67 615.42,1152.23C573.889,1138.91 548.756,1106 545.969,1062.23C542.566,1008.71 576.06,959.2 627.058,942.319C635.277,939.602 643.576,937.96 652.214,940.203C656.406,941.285 659.438,943.803 661.459,947.601C664.973,954.217 663.339,960.471 656.73,964.001C644.839,970.364 633.714,977.754 624.137,987.316C613.122,998.315 604.966,1010.92 602.163,1026.541C596.723,1056.85 617.149,1084.57 647.713,1088.56C671.013,1091.6 692.189,1085.25 712.474,1074.56C730.712,1064.95 745.935,1051.45 760.614,1037.24C793.325,1005.55 821.394,969.985 847.782,933.009C850.072,929.804 852.346,926.598 854.588,923.361C854.762,923.1 854.612,922.619 854.612,921.592C843.052,921.727 831.904,923.084 821.616,927.53C812.393,931.517 803.834,937.012 794.873,941.631C791.92,943.156 788.675,944.814 785.485,945.011C778.142,945.454 772.939,938.521 775.718,931.73C777.21,928.09 780.108,924.451 783.337,922.176C801.608,909.283 822.468,902.69 844.174,898.505C855.133,896.389 866.21,894.874 877.138,892.631C879.664,892.11 882.42,890.191 884.015,888.115C896.301,872.197 907.576,855.442 920.58,840.141C947.205,808.811 977.105,781.097 1014.19,762.155C1015.23,761.626 1016.24,760.986 1017.22,760.331C1017.52,760.133 1017.67,759.723 1018.34,758.807C1016.7,758.088 1015.32,757.117 1013.82,756.865C980.406,751.291 947.102,744.8 913.514,740.56C874.872,735.681 836.349,737.425 798.845,749.553C778.932,755.988 760.732,765.345 746.015,780.552C735.86,791.037 728.399,803.015 725.983,817.756C721.948,842.351 738.995,859.351 763.756,855.545C781.3,852.837 795.67,843.907 809.109,833.098C818.592,825.47 826.622,816.445 833.443,806.355C833.735,805.913 834.012,805.471 834.312,805.036C837.817,800.038 841.465,798.301 845.445,799.73C849.543,801.199 852.109,805.865 851.588,811.4C851.367,813.737 850.956,816.153 850.064,818.301C836.965,849.947 817.968,877.068 788.864,896.074C770.444,908.091 750.215,914.107 727.997,912.915C698.183,911.312 673.327,890.152 667.76,860.701C661.949,829.995 670.926,802.983 690.065,779.075C708.439,756.13 732.576,740.955 759.334,729.696C786.575,718.231 815.046,712.001 844.497,709.775C884.67,706.735 924.709,708.417 964.528,713.817C1002.4,718.958 1040.069,725.432 1077.89,730.919C1114.42,736.217 1150.93,741.8 1187.6,745.803C1225.55,749.948 1263.69,750.485 1301.86,748.021C1334.72,745.905 1367.17,741.168 1399.3,734.109C1409.92,731.772 1417.12,738.657 1415.73,749.411C1414.51,758.775 1409.73,766.142 1403.07,772.403C1389.74,784.942 1373.86,793.343 1357.01,799.967C1328.87,811.037 1299.42,813.722 1269.5,812.995C1230.2,812.056 1192.1,803.907 1154.3,793.935C1118.51,784.492 1082.71,775.072 1046.91,765.652C1046.3,765.487 1045.64,765.439 1045.069,765.353C1044.829,765.684 1044.53,765.897 1044.56,766.063C1045.47,771.669 1042.49,774.875 1038.22,778.009C1011.55,797.535 985.87,818.238 963.825,843.054C952.803,855.474 942.909,868.723 934.539,883.085C934.018,883.961 933.577,884.885 932.716,886.528C934.611,886.528 935.961,886.591 937.303,886.52C957.264,885.454 977.224,884.404 997.184,883.283C1002.51,882.99 1002.61,882.848 1002.3,877.361C1001.19,857.432 1007.66,840.906 1024.31,829.181C1032.68,823.275 1042.089,820.646 1052.33,823.022C1068.32,826.733 1076.69,841.996 1072.34,859.753C1067.9,877.89 1056.37,889.765 1039.06,896.326C1037.42,896.942 1036,898.095 1034.48,899.003C1035.62,900.645 1036.49,902.627 1037.97,903.867C1041.189,906.551 1044.73,908.856 1048.16,911.304C1050.97,913.31 1054.01,915.126 1052.61,919.484C1051.23,923.78 1046.97,927.222 1042.61,926.954C1040.589,926.828 1038.449,926.196 1036.64,925.272C1027.65,920.716 1019.51,914.944 1013.02,907.159C1010.95,904.688 1008.66,903.677 1005.5,903.961C982.198,906.038 958.882,908.02 935.582,910.104C930.355,910.57 925.16,911.454 919.925,911.92C916.032,912.26 913.608,914.107 911.516,917.431C889.921,951.801 868.674,986.4 846.329,1020.28C825.887,1051.28 802.927,1080.41 775.576,1105.77ZM2040.1,929.196C2034.75,905.43 2022.47,885.233 2006.77,866.962C1986.1,842.896 1961.25,823.772 1934.54,806.947C1889.19,778.365 1840.34,757.157 1789.99,739.218C1709.24,710.446 1626.11,690.943 1541.78,676.242C1491.17,667.422 1440.3,660.237 1389.13,655.595C1350.64,652.105 1312.13,648.709 1273.56,646.491C1236.55,644.359 1199.46,643.301 1162.39,642.653C1086.34,641.311 1010.37,643.412 934.532,649.278C901.386,651.836 868.224,654.529 835.204,658.358C799.863,662.456 764.617,667.564 729.441,672.965C675.427,681.248 621.981,692.459 569.08,706.174C511.434,721.121 454.83,739.155 400.199,763.007C357.926,781.468 317.318,802.896 280.974,831.629C258.858,849.11 239.017,868.762 224.788,893.397C202.475,932.039 201.67,971.114 223.146,1010.38C235.566,1033.09 253.016,1051.6 272.613,1068.18C304.551,1095.21 340.539,1115.77 378.17,1133.64C424.289,1155.53 472.208,1172.67 521.098,1187.18C595.483,1209.27 671.195,1225.51 747.933,1236.62C794.983,1243.44 842.239,1249.09 889.55,1253.74C928.91,1257.62 968.452,1259.9 1007.97,1261.75C1046.98,1263.57 1086.05,1263.97 1128.24,1265.06C1166.8,1263.9 1208.48,1263.03 1250.13,1261.27C1280.99,1259.98 1311.84,1257.96 1342.62,1255.48C1370.39,1253.26 1398.12,1250.41 1425.76,1247.04C1457.18,1243.22 1488.65,1239.42 1519.81,1233.95C1562.08,1226.53 1604.26,1218.36 1646.15,1209.02C1711.6,1194.43 1775.64,1174.97 1837.61,1149.11C1883.95,1129.77 1928.51,1107.14 1968.27,1076.03C1991.1,1058.16 2011.47,1037.97 2026.09,1012.6C2041.1,986.542 2046.77,958.844 2040.1,929.196Z" style="fill-rule:nonzero;"/>
            <path d="M1518.13,1024.83C1515.12,1032.35 1514.9,1032.421 1521.8,1037.21C1520.94,1039.021 1520.23,1040.71 1519.37,1042.31C1506.05,1067.07 1490.41,1090 1466.28,1105.58C1459.55,1109.93 1452.09,1113.86 1444.41,1115.94C1426.92,1120.66 1414.81,1110.92 1414.61,1092.79C1414.46,1078.8 1417.84,1065.44 1423.93,1052.9C1436.8,1026.411 1454.61,1004.06 1479.8,988.185C1485.96,984.308 1492.69,981.703 1500.08,981.205C1516.06,980.131 1526.61,991.525 1523.64,1007.26C1522.52,1013.25 1520.41,1019.14 1518.13,1024.83Z" style="fill-rule:nonzero;"/>
            <path d="M1052.22,850.642C1051.46,861.135 1039.35,874.471 1029.01,876.366C1026.3,876.863 1025,875.797 1024.67,873.263C1024.49,871.842 1024.5,870.389 1024.42,869.023C1024.65,859.706 1028,851.818 1034.78,845.533C1036.47,843.97 1038.569,842.644 1040.73,841.862C1047.839,839.288 1052.78,843.157 1052.22,850.642Z" style="fill-rule:nonzero;"/>
        </g>
    </g>
</svg>
